<svg id="ios-menu" xmlns="http://www.w3.org/2000/svg" width="17.997" height="17.996" viewBox="0 0 17.997 17.996">
  <path id="Path_8753" data-name="Path 8753" d="M22.234,2.25H.967A1.058,1.058,0,0,1,0,1.125,1.058,1.058,0,0,1,.967,0H22.234A1.058,1.058,0,0,1,23.2,1.125,1.058,1.058,0,0,1,22.234,2.25Z" transform="translate(0 16.405) rotate(-45)" fill="#7eb7db"/>
  <path id="Path_8755" data-name="Path 8755" d="M22.234,2.25H.967A1.058,1.058,0,0,1,0,1.125,1.058,1.058,0,0,1,.967,0H22.234A1.058,1.058,0,0,1,23.2,1.125,1.058,1.058,0,0,1,22.234,2.25Z" transform="translate(16.406 17.996) rotate(-135)" fill="#7eb7db"/>
</svg>
